<?xml version="1.0" encoding="utf-8"?>
<!-- Generator: Adobe Illustrator 13.0.2, SVG Export Plug-In . SVG Version: 6.00 Build 14948)  -->
<!DOCTYPE svg PUBLIC "-//W3C//DTD SVG 1.1//EN" "http://www.w3.org/Graphics/SVG/1.1/DTD/svg11.dtd">
<svg version="1.1" id="Layer_1" xmlns="http://www.w3.org/2000/svg" xmlns:xlink="http://www.w3.org/1999/xlink" x="0px" y="0px"
	 width="720px" height="475px" viewBox="0 0 142.137 93.613" enable-background="new 0 0 142.137 93.613"
	 xml:space="preserve">
<g>
	<path d="M61.174,31.226H85.09c0,0,16.559,0,16.559,18.59c0,17.299-11.41,17.299-11.41,17.299s-13.066,0-13.066,7.174
		c0,5.895,4.785,5.893,6.625,5.893c1.844,0,38.281,0,38.281,0s7.918,0,7.918-5.893c0-7.174-8.012-6.672-12.703-7.174
		c-5.154-0.553-12.516-2.578-12.516-17.299c0-17.119,13.254-18.406,17.301-18.59s20.059,0,20.059,0v12.332h-20.246
		c0,0-4.598,0-4.598,6.258c0,6.07,4.785,6.07,4.785,6.07s20.059,0,20.059,18.402c0,18.406-18.406,18.406-19.688,18.406
		c-1.289,0-40.309,0-40.309,0s-16.746,0-16.746-18.406c0-18.402,18.695-18.283,20.426-18.402c1.299-0.086,4.418,0,4.418-6.256
		c0-6.072-3.867-5.889-5.148-6.072c-1.293-0.186-23.928,0-23.928,0L61.174,31.226z"/>
	<path fill="#FFFFFF" d="M48.281,31.226"/>
	<path fill="#FFFFFF" d="M61.162,31.226"/>
	<path d="M48.305,43.558L27.93,43.624c0,0-16.258,1.938-15.629,20.59L0.062,64.077c0,0-0.141-5.016,0-6.672
		c0.137-1.656,0.092-3.727,0.828-6.627c0.73-2.896,2.066-6.117,2.672-6.994c0.598-0.871,2.711-4.094,4.781-5.793
		c2.07-1.707,5.062-3.684,8.465-4.832c3.406-1.152,7.133-1.934,8.145-1.934c1.008,0,36.852,0,36.852,0l0.094,12.332H48.305z"/>
	<path d="M12.295,63.868c0.061,1.84,3.041,17.229,17.213,17.229c19.324,0,18.773-16.379,18.773-16.379l0.094-22.293L61,42.679
		l0.162,24.156c0,0-1.652,26.871-29.814,26.777C3.375,93.522,0.062,64.812,0.062,63.985L12.295,63.868z"/>
	<path fill="#FFFFFF" d="M61.162,43.558"/>
	<path d="M48.125,31.823c0,0,1.258-9.25-1.684-13.848c-3.715-5.805-13.617-5.52-13.617-5.52H10.922l0.074-12.449h22.637
		c0,0,16.117-0.621,23.113,10.055C61.949,18.007,61,32.075,61,32.075L48.125,31.823z"/>
</g>
</svg>
