<?xml version="1.0" encoding="utf-8"?>
<!-- Generator: Adobe Illustrator 17.0.0, SVG Export Plug-In . SVG Version: 6.00 Build 0)  -->
<!DOCTYPE svg PUBLIC "-//W3C//DTD SVG 1.1//EN" "http://www.w3.org/Graphics/SVG/1.1/DTD/svg11.dtd">
<svg version="1.1" id="Layer_1" xmlns="http://www.w3.org/2000/svg" xmlns:xlink="http://www.w3.org/1999/xlink" x="0px" y="0px"
	 width="500px" height="500px" viewBox="0 0 500 500" enable-background="new 0 0 500 500" xml:space="preserve">
<path fill="#FFFFFF" d="M495.588,231.151c-0.266-4.598-2.366-9.578-5.022-14.22c-2.669-4.686-6.036-9.127-9.563-13.448
	c-3.539-4.311-13.26-14.166-13.26-14.166l-7.722-6.463l-3.228-2.499c-4.37-3.456-9.152-6.893-13.879-10.191l-3.182-2.068
	l-11.027-4.521c-2.577-0.848-5.297-1.424-7.995-2.053c-2.748-0.503-5.502-1.068-8.285-1.423c-2.735-0.426-5.647-0.747-8.534-1.069
	l-8.563-0.771l-17.316-1.515c-5.74-0.516-11.399-0.73-17.038-0.765l-4.184,0.173l-8.07,0.746c-1.398,0.266-6.151,1.299-6.151,1.299
	l-5.369,2.289l-3.558,1.904l-1.732,1.002c-0.579,0.336-4.13,2.809-4.13,2.809l-4.569,3.437c-2.303,1.745-4.617,3.484-6.871,5.253
	c-4.515,3.533-8.92,7.162-12.857,11.102l-2.807,2.963l-2.779,3.354l-2.268,3.244c-0.622,1.075-1.189,2.166-1.792,3.248l-0.724,3.971
	c-0.151,1.443-0.067,9.759-0.067,9.759l0.797,5.088l0.665,2.665l2.808,8.794l0.744,2.132c0.265,0.703,2.77,2.672,3.386,2.242
	c0.241-0.168,12.832-11.453,23.144-12.276c14.948-1.193,30.502,0.373,46.828,7.745c13.873,6.264,27.705,11.207,38.197,17.753
	c14.259,8.896,22.547,19.355,22.547,19.355s3.313-3.377,4.446-4.004l3.43-1.846c1.155-0.591,2.355-1.075,3.539-1.603
	c0,0,6.001-2.444,7.216-2.896l3.664-1.31c1.226-0.426,7.444-2.219,7.444-2.219c1.249-0.341,2.51-0.605,3.766-0.913l3.775-0.891
	l7.589-1.493l-0.259,0.047l3.564-1.028l3.839-1.47l-0.072,0.023l0.154-0.075l2.982-1.59l2.824-2.11c0,0,3.64-3.313,4.487-5.209
	C495.418,235.55,495.728,233.434,495.588,231.151z"/>
<path fill="#FFFFFF" d="M79.245,275.08c-6.34-0.319-36.902-12.218-59.284-17.525c-32.406-9.048-5.565-34.053,2.981-51.892
	c1.792-2.748,3.634-5.5,5.473-8.266c1.84-2.764,3.664-5.546,5.468-8.345s3.589-5.619,5.347-8.461
	c27.555-34.23,77.914-22.288,116.58-23.704c2.412,0.284,4.591,0.908,6.416,2.066c16.58,8.791,28.481,24.254,40.51,40.075
	c2.406,3.165,4.816,6.343,7.258,9.459c2.009,2.735,3.383,5.566,4.225,8.45c0.844,2.884,1.309,5.831,1.05,8.766
	c-0.306,3.468-7.051-1.481-16.114-3.45c-10.082-2.191-21.586-2.441-22.876-1.885c0,0-24.314,2.671-36.094,7.204
	c-10.717,4.124-9.378,4.6-13.059,5.968c-2.115,0.787-4.978,2.05-10.261,4.965c-4.224,2.33-7.124,5-9.709,7.475
	c-0.892,0.854-1.797,1.61-2.704,2.325c-1.721,1.356-3.451,2.556-5.122,3.977C94.084,256.743,79.924,275.133,79.245,275.08z"/>
<path fill="#FFFFFF" d="M449.626,358.897c-0.192-3.336-0.392-6.729-0.614-10.116c-1.297-19.758-4.352-38.959-13.796-55.247
	c-1.888-3.257-15.728-16.302-19.273-17.964c-13.221-6.195-21.108-10.309-27.686-13.468c-10.464-5.027-17.614-7.643-37.642-12.395
	c-3.266-0.775-11.504-1.524-21.689-0.363c-7.933,0.904-12.958,5.389-14.076,5.802c-5.032,1.859,1.771,22.252,3.258,29.218
	c1.487,6.967,12.298,73.331,12.854,79.232c0.613,6.493,1.544,13.717,3.103,16.937c2.343,4.844,1.098,3.419,3.719,6.903
	c3.055,4.064,6.378,7.653,9.881,11.169c8.424,10.609,17.455,11.731,24.514,13.724c12.664,3.574,23.308,1.363,43.458,0.709
	c5.452-0.975,23.517-0.917,26.745-4.43C450.692,400.749,451.172,376.831,449.626,358.897z"/>
<path fill="#FFFFFF" d="M312.146,381.962c-7.323,8.294-12.349,18.284-17.29,28.032c-1.647,3.248-3.539,6.309-5.566,9.373
	c-1.945,3.172-5.223,7.709-7.305,10.78c-2.083,3.071-5.294,6.61-7.573,9.516c-2.273,2.719-4.643,4.208-7.52,6.533
	c-2.877,2.325-3.516,2.249-7.118,3.431c-3.248,1.56-5.97,2.279-9.325,2.64c-6.71,0.724-12.847-2.188-18.847-8.183
	c-17.405-17.392-24.248-40.735-35.783-64.885c-1.435-2.954-4.516-11.119-5.718-14.103c-2.103-5.221-1.958-6.817-2.948-12.061
	c-0.496-2.622-0.386-4.205-0.317-6.847c0.097-3.709,1.944-8.978,3.447-14.258c0.752-2.64,0.987-3.557,1.989-6.374
	c8.841-41.552,24.574-77.892,72.066-67.741c2.934-0.578,7.485-1.789,10.504-2.864c16.416-1.958,20.111,10.248,24.617,23.921
	c1.126,3.418,10.982,61.125,11.551,63.594c1.663,7.214,2.299,19.211,1.895,27.278C312.551,376.812,312.146,381.962,312.146,381.962z
	"/>
<path fill="#FFFFFF" d="M187.963,142.378c17.671,3.197,25.753,21.755,31.176,36.902c5.717,15.967,8.203,33.387,15.551,48.732
	c1.03,2.15,9.192-0.775,8.477-2.271c-7.574-15.818-10.218-33.839-16.115-50.31c-5.524-15.429-14.398-33.184-32.138-36.393
	C192.881,138.669,185.535,141.939,187.963,142.378z"/>
<path fill="#FFFFFF" d="M200.685,142.401c-4.18,4.345-11.103,5.201-16.724,1.647c-19.728-15.461-22.941-38.421-24.735-59.735
	c-1.506-6.183,5.419-7.039,9.648-3.617c15.498,12.041,28.331,29.87,30.317,50.937C200.088,137.54,200.685,142.401,200.685,142.401z"
	/>
<path fill="#FFFFFF" d="M311.472,140.563c-38.316,8.921-34.888,61.707-46.962,90.524c-0.646,1.543,7.444,0.741,8.368-1.462
	c6.128-14.625,7.985-30.977,12.174-46.207c3.921-14.255,10.6-36.262,27.153-40.116C317.219,142.131,316.431,139.407,311.472,140.563
	z"/>
<path fill="#FFFFFF" d="M298.379,139.359c-0.227,4.016,2.026,6.805,5.272,8.156c3.263,1.446,7.516,1.419,11.219-0.627
	c22.438-14.977,38.86-43.399,27.498-60.856c-9.379-15.671-23.166,11.761-32.22,29.728c-1.811,3.593-3.432,6.808-4.791,9.224
	C301.55,132.758,298.379,139.359,298.379,139.359z"/>
<path fill="#FFFFFF" d="M257.808,91.003c-2.738,18.404-1.574,7.65-2.656,24.084c-0.74,11.241-3.253,22.446-3.757,33.658
	c-1.073,23.839,0.644,47.885-1.495,71.664c-0.113,1.246,8.243,0.328,8.477-2.271c1.976-21.981,0.642-44.249,1.296-66.29
	c0.339-11.418,0.989-22.901,3.004-34.159c1.193-6.663,0.698-14.765,1.686-22.108C265.226,89.168,260.843,93.111,257.808,91.003z"/>
<path fill="#FFFFFF" d="M258.408,127.95c-7.64-2.632-9.962-11.037-12.285-19.442c-2.849-19.608,8.291-74.432,19.545-57.777
	c10.985,16.257,6.78,47.364-2.774,67.323C260.387,123.532,258.408,127.95,258.408,127.95z"/>
<path fill="#FFFFFF" d="M175.975,394.934c-1.958,1.404-3.283,2.888-5.518,4.266c-4.057,2.501-7.219,4.123-10.305,5.413
	c-5.145,2.15-8.376,4.035-18.321,5.885c-2.964,0.551-16.134,1.1-19.176,1.381c-3.043,0.279-8.478,1.193-11.229,1.936
	c-8.722,2.903-17.393,6.932-24.902,9.786c-6.828,2.594-12.754,4.379-15.707,0.322c-4.588-5.794-3.443-14.568-2.26-23.303
	c1.449-10.704,3.639-21.096,3.807-22.724c0.848-8.212,0.51-7.813,0.841-16.974c0.11-3.054-0.307-29.267,0.038-32.156
	c2.511-15.26,6.591-23.669,12.345-31.553c4.301-5.895,8.991-11.887,17.63-18.107c2.899-2.087,15.943-12.468,19.143-13.957
	c3.75-1.973,9.132-4.85,13.154-6.376c2.975-1.17,16.877-6.005,20.111-6.665c10.395-2.001,19.78-4.371,30.914-2.909
	c3.715,0.488,16.86,2.776,17.012,6.436c0.221,5.307-15.668,15.473-20.169,26.307c-6.698,16.118-9.727,20.96-14.305,44.897
	c-1.575,8.237-4.004,15.889-5.565,23.005C159.979,365.95,178.633,392.767,175.975,394.934z"/>
</svg>
