<?xml version="1.0" encoding="utf-8"?>
<!-- Generator: Adobe Illustrator 17.0.0, SVG Export Plug-In . SVG Version: 6.00 Build 0)  -->
<!DOCTYPE svg PUBLIC "-//W3C//DTD SVG 1.1//EN" "http://www.w3.org/Graphics/SVG/1.1/DTD/svg11.dtd">
<svg version="1.1" id="Layer_1" xmlns="http://www.w3.org/2000/svg" xmlns:xlink="http://www.w3.org/1999/xlink" x="0px" y="0px"
	 width="500px" height="500px" viewBox="0 0 500 500" enable-background="new 0 0 500 500" xml:space="preserve">
<path fill="#FFFFFF" d="M422.623,237.112c-0.182-3.144-1.618-6.549-3.434-9.723c-1.825-3.204-4.127-6.241-6.539-9.195
	c-2.42-2.948-5.096-5.758-7.803-8.456l-1.047-1.025l-0.175-0.17l-0.042-0.035l-0.143-0.119l-0.571-0.478l-2.283-1.911l-2.283-1.911
	l-2.207-1.709c-2.988-2.363-6.258-4.713-9.49-6.968l-2.176-1.414l-2.396-1.178c-0.786-0.413-1.685-0.676-2.522-1.026
	c-0.428-0.161-0.847-0.339-1.283-0.489l-1.339-0.398c-1.762-0.58-3.622-0.974-5.467-1.404c-1.879-0.344-3.762-0.73-5.665-0.973
	c-1.87-0.291-3.861-0.511-5.835-0.731l-5.855-0.527l-11.84-1.036c-3.925-0.353-7.794-0.499-11.65-0.523l-2.861,0.118l-1.432,0.057
	c-0.464,0.038-0.908,0.102-1.364,0.151l-2.722,0.302c-0.956,0.182-1.937,0.408-2.905,0.61l-1.301,0.278l-0.033,0.013l-0.153,0.061
	l-0.306,0.121l-0.614,0.239l-1.233,0.471l-1.332,0.66l-1.333,0.662l-1.1,0.64l-1.184,0.685c-0.396,0.23-0.814,0.548-1.22,0.818
	l-1.227,0.844l-0.307,0.211l-0.038,0.026l-0.026,0.018l-0.006,0.004l-0.149,0.112l-0.595,0.448l-2.38,1.79
	c-1.575,1.193-3.157,2.382-4.698,3.592c-3.087,2.416-6.099,4.897-8.791,7.591l-1.919,2.026l-1.9,2.293l-1.551,2.218
	c-0.425,0.735-0.813,1.481-1.225,2.221l-0.495,2.715c-0.103,0.987-0.046,6.673-0.046,6.673l0.124,0.793l0.372,2.38l0.049,0.306
	l0.455,1.822l1.92,6.013l0.509,1.458c0.181,0.481,1.894,1.827,2.315,1.533c0.165-0.115,8.774-7.831,15.825-8.394
	c10.221-0.816,20.856,0.255,32.019,5.296c9.486,4.283,18.944,7.663,26.118,12.139c9.75,6.083,15.417,13.234,15.417,13.234
	s2.265-2.309,3.04-2.738l2.345-1.262c0.79-0.404,1.61-0.735,2.42-1.096l2.442-1.061c0.818-0.344,1.661-0.61,2.492-0.919l2.505-0.896
	c0.838-0.291,1.692-0.512,2.539-0.772l2.551-0.745c0.854-0.233,1.716-0.414,2.575-0.624l2.581-0.609l5.189-1.021l-0.177,0.032
	l2.437-0.703l2.625-1.005l-0.078,0.03l0.002-0.001l0.009-0.004l0.018-0.009l0.035-0.017l0.07-0.034l0.14-0.068l0.28-0.136
	l0.56-0.271l1.059-0.612l0.994-0.682l0.927-0.753l0.01-0.008l0.17-0.13c1.295-0.991,2.319-2.135,2.898-3.432
	C422.507,240.12,422.719,238.673,422.623,237.112z"/>
<path fill="#FFFFFF" d="M137.943,267.149c-4.335-0.218-25.232-8.354-40.536-11.983c-22.158-6.187-3.805-23.284,2.038-35.482
	c1.225-1.879,2.485-3.761,3.742-5.652c1.258-1.89,2.505-3.792,3.739-5.706s2.454-3.842,3.656-5.785
	c18.841-23.405,53.275-15.24,79.713-16.208c1.649,0.194,3.139,0.621,4.387,1.413c11.337,6.011,19.474,16.584,27.699,27.402
	c1.645,2.164,3.293,4.337,4.963,6.468c1.374,1.87,2.313,3.806,2.889,5.778c0.577,1.972,0.895,3.987,0.718,5.994
	c-0.209,2.371-4.821-1.013-11.018-2.359c-6.894-1.498-14.76-1.669-15.642-1.289c0,0-16.625,1.826-24.68,4.926
	c-7.328,2.82-6.412,3.145-8.929,4.081c-1.446,0.538-3.404,1.402-7.016,3.395c-2.888,1.593-4.871,3.419-6.639,5.111
	c-0.61,0.584-1.229,1.101-1.849,1.59c-1.177,0.927-2.36,1.748-3.502,2.719C148.089,254.611,138.407,267.185,137.943,267.149z"/>
<path fill="#FFFFFF" d="M391.196,324.46c-0.131-2.281-0.268-4.601-0.42-6.917c-0.887-13.51-2.976-26.639-9.433-37.776
	c-1.291-2.227-10.754-11.147-13.178-12.283c-9.04-4.236-14.433-7.049-18.931-9.209c-7.155-3.437-12.044-5.226-25.738-8.475
	c-2.233-0.53-7.866-1.042-14.83-0.248c-5.424,0.618-8.86,3.685-9.625,3.967c-3.441,1.271,1.211,15.215,2.228,19.978
	c1.017,4.764,8.409,50.141,8.789,54.176c0.419,4.44,1.056,9.379,2.122,11.581c1.602,3.312,0.751,2.338,2.543,4.72
	c2.089,2.779,4.361,5.233,6.756,7.637c5.76,7.254,11.935,8.021,16.762,9.384c8.659,2.444,15.937,0.932,29.715,0.485
	c3.728-0.667,16.08-0.627,18.287-3.029C391.925,353.077,392.253,336.723,391.196,324.46z"/>
<path fill="#FFFFFF" d="M297.192,340.231c-5.007,5.671-8.444,12.502-11.822,19.167c-1.126,2.221-2.42,4.314-3.806,6.409
	c-1.33,2.169-3.571,5.271-4.995,7.371c-1.424,2.1-3.62,4.52-5.178,6.507c-1.554,1.859-3.175,2.877-5.142,4.467
	c-1.967,1.59-2.404,1.538-4.867,2.346c-2.221,1.067-4.082,1.558-6.376,1.805c-4.588,0.495-8.784-1.496-12.887-5.595
	c-11.901-11.892-16.58-27.853-24.467-44.366c-0.981-2.02-3.088-7.603-3.91-9.643c-1.438-3.57-1.339-4.661-2.016-8.247
	c-0.339-1.793-0.264-2.875-0.217-4.682c0.066-2.536,1.329-6.139,2.357-9.749c0.514-1.805,0.675-2.432,1.36-4.358
	c6.045-28.412,16.803-53.26,49.276-46.319c2.006-0.395,5.118-1.223,7.182-1.958c11.225-1.339,13.751,7.007,16.832,16.356
	c0.77,2.337,7.509,41.795,7.898,43.483c1.137,4.933,1.572,13.136,1.296,18.652C297.469,336.71,297.192,340.231,297.192,340.231z"/>
<path fill="#FFFFFF" d="M78.126,120.166c0.905,0,3.143-1.372,1.2-1.372C78.42,118.794,76.182,120.166,78.126,120.166z"/>
<path fill="#FFFFFF" d="M212.28,176.412c12.083,2.186,17.609,14.875,21.317,25.232c3.909,10.918,5.609,22.829,10.633,33.321
	c0.704,1.47,6.285-0.53,5.796-1.553c-5.179-10.816-6.987-23.138-11.019-34.4c-3.777-10.55-9.845-22.69-21.975-24.884
	C215.643,173.876,210.62,176.112,212.28,176.412z"/>
<path fill="#FFFFFF" d="M220.979,176.428c-2.858,2.971-7.592,3.556-11.435,1.126c-13.489-10.572-15.686-26.271-16.913-40.845
	c-1.03-4.228,3.705-4.813,6.597-2.473c10.597,8.233,19.372,20.424,20.73,34.829C220.571,173.104,220.979,176.428,220.979,176.428z"
	/>
<path fill="#FFFFFF" d="M296.731,175.171c-26.199,6.1-23.855,42.193-32.111,61.897c-0.442,1.055,5.09,0.507,5.722-1
	c4.19-10,5.46-21.181,8.324-31.595c2.681-9.747,7.248-24.795,18.566-27.43C300.661,176.243,300.122,174.381,296.731,175.171z"/>
<path fill="#FFFFFF" d="M287.779,174.348c-0.155,2.746,1.385,4.653,3.605,5.577c2.231,0.989,5.139,0.97,7.671-0.429
	c15.342-10.241,26.571-29.675,18.802-41.611c-6.413-10.715-15.84,8.042-22.031,20.327c-1.238,2.457-2.347,4.655-3.276,6.307
	C289.947,169.834,287.779,174.348,287.779,174.348z"/>
<path fill="#FFFFFF" d="M260.038,141.284c-1.872,12.584-1.076,5.231-1.816,16.468c-0.506,7.686-2.224,15.348-2.569,23.014
	c-0.734,16.3,0.44,32.742-1.022,49.001c-0.077,0.852,5.636,0.224,5.796-1.553c1.351-15.03,0.439-30.256,0.886-45.327
	c0.232-7.807,0.676-15.659,2.054-23.357c0.816-4.556,0.477-10.096,1.153-15.117C265.11,140.029,262.113,142.725,260.038,141.284z"/>
<path fill="#FFFFFF" d="M260.448,166.547c-5.224-1.8-6.812-7.547-8.4-13.294c-1.948-13.407,5.669-50.894,13.364-39.506
	c7.511,11.116,4.636,32.386-1.897,46.033C261.801,163.526,260.448,166.547,260.448,166.547z"/>
<path fill="#FFFFFF" d="M204.083,349.101c-1.339,0.96-2.245,1.975-3.773,2.917c-2.774,1.71-4.936,2.819-7.046,3.701
	c-3.518,1.47-5.727,2.759-12.527,4.024c-2.027,0.377-11.032,0.752-13.112,0.944c-2.081,0.191-5.797,0.816-7.678,1.324
	c-5.964,1.985-11.893,4.74-17.027,6.691c-4.669,1.774-8.721,2.994-10.74,0.22c-3.137-3.962-2.354-9.961-1.545-15.934
	c0.991-7.319,2.488-14.425,2.603-15.538c0.58-5.615,0.349-5.342,0.575-11.606c0.075-2.088-0.21-20.012,0.026-21.987
	c1.717-10.434,4.507-16.184,8.441-21.575c2.941-4.031,6.148-8.128,12.055-12.381c1.982-1.427,10.901-8.525,13.089-9.543
	c2.564-1.349,6.244-3.316,8.994-4.36c2.034-0.8,11.54-4.106,13.751-4.557c7.108-1.368,13.525-2.989,21.138-1.989
	c2.54,0.334,11.528,1.898,11.632,4.401c0.151,3.629-10.713,10.58-13.791,17.988c-4.58,11.021-6.651,14.332-9.781,30.699
	c-1.077,5.632-2.738,10.864-3.805,15.73C193.146,329.283,205.901,347.619,204.083,349.101z"/>
</svg>
