<?xml version="1.0" encoding="utf-8"?>
<!-- Generator: Adobe Illustrator 17.0.0, SVG Export Plug-In . SVG Version: 6.00 Build 0)  -->
<!DOCTYPE svg PUBLIC "-//W3C//DTD SVG 1.1//EN" "http://www.w3.org/Graphics/SVG/1.1/DTD/svg11.dtd">
<svg version="1.1" id="Layer_1" xmlns="http://www.w3.org/2000/svg" xmlns:xlink="http://www.w3.org/1999/xlink" x="0px" y="0px"
	 width="500px" height="500px" viewBox="0 0 500 500" enable-background="new 0 0 500 500" xml:space="preserve">
<path fill="#FFFFFF" d="M398.213,339.428c1.672-2.669,2.472-6.276,2.829-9.916c0.367-3.669,0.248-7.478-0.009-11.283
	c-0.267-3.805-0.821-7.645-1.467-11.412l-0.261-1.442l-0.044-0.24l-0.014-0.052l-0.047-0.18l-0.189-0.72l-0.755-2.88l-0.755-2.88
	l-0.81-2.671c-1.069-3.657-2.374-7.466-3.704-11.176l-0.956-2.412l-1.272-2.348c-0.401-0.792-0.982-1.527-1.462-2.297
	c-0.256-0.379-0.494-0.767-0.763-1.141l-0.861-1.1c-1.101-1.493-2.389-2.891-3.645-4.31c-1.333-1.368-2.645-2.773-4.056-4.073
	c-1.356-1.32-2.852-2.652-4.334-3.974l-4.469-3.819l-9.054-7.699c-2.996-2.561-6.066-4.919-9.196-7.171l-2.401-1.56l-1.201-0.782
	c-0.4-0.238-0.8-0.442-1.199-0.666l-2.394-1.33c-0.885-0.405-1.816-0.789-2.721-1.185l-1.222-0.526l-0.035-0.008l-0.16-0.039
	l-0.32-0.079l-0.639-0.16l-1.278-0.329l-1.469-0.233l-1.471-0.232l-1.267-0.115l-1.362-0.127c-0.456-0.042-0.981-0.024-1.469-0.04
	l-1.489-0.022l-0.372-0.006l-0.047-0.001l-0.031,0l-0.007,0l-0.186,0.005l-0.744,0.02l-2.977,0.082
	c-1.974,0.061-3.953,0.115-5.91,0.209c-3.915,0.183-7.808,0.462-11.562,1.1l-2.738,0.541l-2.876,0.77l-2.549,0.911
	c-0.772,0.353-1.521,0.737-2.285,1.102l-1.975,1.927c-0.655,0.745-3.901,5.414-3.901,5.414l-0.358,0.719l-1.075,2.156l-0.138,0.278
	l-0.684,1.749l-1.916,6.014l-0.429,1.484c-0.131,0.497,0.487,2.587,1,2.59c0.201,0.001,11.688-1.306,17.763,2.317
	c8.806,5.252,16.857,12.282,23.042,22.855c5.255,8.983,11.01,17.215,14.269,25.018c4.428,10.605,4.909,19.716,4.909,19.716
	s3.184-0.571,4.064-0.472l2.642,0.329c0.878,0.127,1.738,0.333,2.608,0.507l2.605,0.549c0.866,0.193,1.707,0.464,2.564,0.694
	l2.562,0.72c0.852,0.248,1.676,0.562,2.517,0.841l2.511,0.869c0.831,0.304,1.639,0.656,2.461,0.982l2.457,0.998l4.822,2.172
	l-0.162-0.076l2.394,0.837l2.722,0.7l-0.081-0.021l0.002,0l0.01,0.002l0.019,0.003l0.039,0.006l0.077,0.013l0.154,0.025l0.307,0.051
	l0.613,0.103l1.218,0.114l1.205,0.019l1.192-0.077l0.013-0.001l0.214-0.008c1.629-0.058,3.127-0.398,4.35-1.121
	C396.377,341.815,397.388,340.757,398.213,339.428z"/>
<path fill="#FFFFFF" d="M148.703,199.109c-3.408-2.687-15.737-21.42-26.114-33.238c-14.486-17.872,10.377-21.188,22.203-27.751
	c2.087-0.823,4.204-1.628,6.323-2.441c2.12-0.813,4.238-1.641,6.352-2.488c2.114-0.847,4.225-1.712,6.33-2.6
	c28.912-8.176,52.262,18.417,74.38,32.933c1.233,1.113,2.2,2.323,2.76,3.692c5.764,11.465,6.277,24.796,6.721,38.379
	c0.089,2.717,0.175,5.443,0.302,8.148c0.038,2.32-0.318,4.442-0.989,6.384c-0.672,1.942-1.579,3.769-2.885,5.303
	c-1.543,1.812-3.344-3.617-7.618-8.302c-4.754-5.212-11.069-9.906-12.008-10.107c0,0-14.613-8.136-22.975-10.271
	c-7.607-1.943-7.049-1.148-9.643-1.842c-1.491-0.398-3.587-0.827-7.686-1.294c-3.277-0.373-5.951-0.032-8.373,0.324
	c-0.836,0.123-1.64,0.187-2.428,0.226c-1.496,0.074-2.936,0.059-4.43,0.189C164.235,194.76,149.061,199.407,148.703,199.109z"/>
<path fill="#FFFFFF" d="M322.02,392.456c1.214-1.936,2.446-3.907,3.663-5.883c7.098-11.529,12.996-23.444,14.178-36.262
	c0.237-2.564-2.315-15.315-3.634-17.645c-4.918-8.687-7.688-14.103-10.104-18.469c-3.844-6.945-6.795-11.234-16.08-21.811
	c-1.514-1.725-5.81-5.403-11.949-8.788c-4.78-2.636-9.357-2.125-10.145-2.338c-3.542-0.956-7.821,13.107-9.75,17.58
	c-1.929,4.473-22.172,45.752-24.198,49.262c-2.229,3.863-4.568,8.259-4.975,10.671c-0.611,3.628-0.741,2.341-0.659,5.321
	c0.094,3.476,0.526,6.792,1.087,10.139c0.497,9.25,5.088,13.45,8.235,17.355c5.645,7.006,12.455,9.986,23.948,17.598
	c3.426,1.615,13.474,8.798,16.664,8.118C306.047,416.212,315.783,403.067,322.02,392.456z"/>
<path fill="#FFFFFF" d="M236.242,350.893c-7.365,1.725-14.123,5.306-20.736,8.784c-2.204,1.159-4.47,2.117-6.814,3.022
	c-2.341,0.999-5.963,2.23-8.34,3.118c-2.377,0.888-5.568,1.59-7.989,2.308c-2.343,0.616-4.255,0.508-6.779,0.665
	c-2.524,0.158-2.851-0.137-5.327-0.905c-2.428-0.416-4.23-1.093-6.244-2.219c-4.027-2.252-6.296-6.305-7.268-12.022
	c-2.82-16.586,2.606-32.309,5.735-50.339c0.369-2.215,1.884-7.987,2.395-10.127c0.894-3.744,1.607-4.575,3.131-7.892
	c0.762-1.658,1.45-2.497,2.534-3.943c1.522-2.03,4.638-4.236,7.566-6.585c1.464-1.174,1.958-1.592,3.632-2.766
	c21.377-19.667,44.535-33.699,66.994-9.24c1.865,0.84,4.881,1.965,6.989,2.562c9.928,5.407,7.156,13.674,4.255,23.081
	c-0.725,2.352-18.074,38.426-18.734,40.028c-1.929,4.681-6.323,11.62-9.742,15.959C238.506,348.183,236.242,350.893,236.242,350.893
	z"/>
<path fill="#FFFFFF" d="M185.023,44.633c0.738,0.524,3.357,0.701,1.773-0.424C186.058,43.685,183.439,43.508,185.023,44.633z"/>
<path fill="#FFFFFF" d="M261.846,168.161c8.587,8.778,5.746,22.323,2.774,32.914c-3.133,11.165-8.643,21.862-10.621,33.325
	c-0.277,1.606,5.432,3.207,5.625,2.089c2.039-11.817,7.698-22.911,10.931-34.429c3.028-10.789,5.108-24.2-3.512-33.012
	C266.057,168.04,260.667,166.955,261.846,168.161z"/>
<path fill="#FFFFFF" d="M268.93,173.21c-4.05,0.768-8.249-1.496-9.976-5.702c-4.878-16.43,2.419-30.502,9.856-43.096
	c1.608-4.044,5.807-1.779,6.811,1.802c3.875,12.848,3.971,27.868-3.261,40.4C270.522,170.264,268.93,173.21,268.93,173.21z"/>
<path fill="#FFFFFF" d="M331.425,216.04c-24.893-10.194-43.878,20.593-62.016,31.879c-0.971,0.604,3.857,3.361,5.244,2.497
	c9.205-5.728,16.714-14.109,25.079-20.943c7.829-6.396,20.264-16.021,31.019-11.617C334.008,219.19,334.646,217.36,331.425,216.04z"
	/>
<path fill="#FFFFFF" d="M324.602,210.187c-1.716,2.149-1.564,4.596-0.29,6.635c1.247,2.098,3.628,3.766,6.503,4.091
	c18.438,0.532,38.845-8.813,39.421-23.043c0.974-12.45-17.571-2.613-29.731,3.82c-2.432,1.287-4.609,2.437-6.323,3.246
	C328.983,207.762,324.602,210.187,324.602,210.187z"/>
<path fill="#FFFFFF" d="M321.124,167.167c-8.812,9.177-3.906,3.643-11.014,12.376c-4.863,5.974-10.699,11.227-15.418,17.277
	c-10.035,12.866-18.597,26.952-29.202,39.363c-0.556,0.65,4.465,3.446,5.625,2.089c9.803-11.472,17.874-24.415,26.964-36.445
	c4.709-6.232,9.617-12.376,15.197-17.856c3.303-3.243,6.234-7.956,9.692-11.658C325.986,169.081,321.981,169.544,321.124,167.167z"
	/>
<path fill="#FFFFFF" d="M306.833,188.003c-3.217-4.493-1.185-10.098,0.847-15.702c6.174-12.059,34.086-38.216,33.768-24.476
	c-0.311,13.412-14.969,29.091-28.196,36.436C309.685,186.324,306.833,188.003,306.833,188.003z"/>
<path fill="#FFFFFF" d="M155.187,304.221c-1.648,0.008-2.974,0.311-4.765,0.194c-3.252-0.212-5.657-0.559-7.887-1.061
	c-3.72-0.838-6.267-1.066-12.544-3.971c-1.871-0.866-9.43-5.773-11.238-6.822c-1.807-1.048-5.199-2.691-7.027-3.365
	c-6.012-1.835-12.442-3.021-17.757-4.402c-4.834-1.256-8.844-2.608-8.885-6.038c-0.264-5.046,3.847-9.485,7.965-13.887
	c5.046-5.394,10.38-10.321,11.118-11.162c3.724-4.243,3.377-4.154,7.189-9.13c1.27-1.659,11.414-16.438,12.75-17.913
	c7.44-7.514,13.044-10.587,19.373-12.705c4.732-1.584,9.719-3.069,16.998-3.116c2.442-0.016,13.824-0.64,16.198-0.203
	c2.871,0.385,7.011,0.911,9.857,1.651c2.122,0.526,11.786,3.333,13.85,4.246c6.588,2.999,12.758,5.393,18.387,10.616
	c1.878,1.742,8.301,8.221,6.936,10.322c-1.978,3.047-14.86,2.424-21.659,6.683c-10.115,6.335-13.72,7.835-25.748,19.369
	c-4.139,3.969-8.522,7.273-12.209,10.623C157.743,281.73,157.528,304.066,155.187,304.221z"/>
</svg>
